 <svg  version="1.0" xmlns="http://www.w3.org/2000/svg"  width="300.000000pt" height="299.000000pt" viewBox="0 0 300.000000 299.000000"  preserveAspectRatio="xMidYMid meet">  <g transform="translate(0.000000,299.000000) scale(0.100000,-0.100000)" fill="#08569b" stroke="none"> <path d="M1345 2943 c-154 -14 -350 -70 -498 -143 -296 -146 -545 -399 -680 -691 -93 -199 -126 -342 -134 -574 -4 -143 -2 -189 15 -290 107 -624 587 -1101 1211 -1201 120 -19 342 -19 462 0 601 97 1066 541 1201 1147 30 137 33 434 5 572 -126 622 -623 1091 -1244 1172 -105 14 -239 17 -338 8z m361 -228 c255 -45 497 -175 679 -367 229 -240 345 -529 345 -857 0 -215 -41 -387 -135 -568 -48 -93 -141 -233 -154 -233 -14 0 -1753 1749 -1748 1757 13 21 157 113 242 156 105 52 192 82 313 107 112 24 335 26 458 5z m574 -2187 c0 -15 -204 -142 -289 -179 -188 -83 -416 -120 -616 -99 -535 55 -957 417 -1095 940 -31 120 -39 386 -15 515 37 201 143 436 249 553 l20 23 873 -873 c480 -480 873 -876 873 -880z"/> <path d="M1992 2239 c-142 -25 -205 -111 -131 -180 42 -39 115 -59 220 -59 98 0 176 20 214 56 35 33 35 96 -1 129 -51 48 -194 73 -302 54z"/> <path d="M1830 1989 c0 -67 99 -113 245 -113 100 0 155 13 206 47 28 18 35 30 37 62 l3 40 -23 -22 c-41 -39 -105 -56 -213 -57 -110 -1 -163 11 -219 49 l-36 24 0 -30z"/> <path d="M1830 1861 c0 -65 104 -111 250 -111 147 0 240 43 240 110 l0 31 -26 -20 c-43 -34 -122 -54 -214 -54 -97 0 -159 14 -212 49 l-38 24 0 -29z"/> <path d="M1398 1863 c-16 -2 -28 -7 -28 -11 0 -4 49 -56 108 -115 l108 -108 56 21 c70 26 92 50 91 98 -1 43 -39 81 -101 101 -40 13 -189 22 -234 14z"/> <path d="M1832 1731 c12 -125 346 -162 471 -53 10 9 17 29 17 50 l0 35 -23 -21 c-43 -40 -104 -56 -222 -56 -93 0 -118 3 -160 22 -27 13 -58 30 -68 40 -18 16 -18 15 -15 -17z"/> <path d="M1683 1613 c-49 -28 -51 -33 -24 -57 16 -15 22 -15 40 -4 23 14 46 68 34 78 -5 4 -27 -4 -50 -17z"/> <path d="M1830 1606 c0 -28 7 -40 33 -60 51 -39 146 -59 247 -54 133 8 210 50 210 114 l0 33 -25 -23 c-80 -74 -346 -74 -435 0 l-30 26 0 -36z"/> <path d="M1720 1505 c0 -8 4 -15 10 -15 5 0 7 7 4 15 -4 8 -8 15 -10 15 -2 0 -4 -7 -4 -15z"/> <path d="M1830 1483 c0 -37 39 -76 100 -99 31 -12 77 -17 150 -18 88 0 113 3 155 22 69 32 85 49 85 90 l0 35 -23 -21 c-43 -40 -104 -56 -222 -56 -94 -1 -117 3 -160 22 -27 13 -57 30 -67 39 -17 15 -18 14 -18 -14z"/> <path d="M2287 1355 c-41 -36 -101 -50 -217 -50 -88 0 -113 4 -155 23 l-50 23 58 -58 57 -58 103 1 c83 0 111 4 154 23 65 29 85 51 81 89 l-3 31 -28 -24z"/> <path d="M2307 1242 c-17 -26 -91 -53 -173 -64 l-84 -12 27 -29 c26 -27 32 -29 81 -24 62 7 138 40 153 68 12 24 8 81 -4 61z"/> <path d="M2312 1133 c-2 -14 -82 -56 -126 -67 l-29 -7 25 -26 c31 -31 62 -27 109 15 26 23 30 33 26 62 -2 19 -5 29 -5 23z"/> <path d="M2287 977 c-28 -22 -28 -23 -9 -40 17 -15 21 -16 31 -3 7 8 11 26 9 40 l-3 26 -28 -23z"/> <path d="M820 1484 c-109 -21 -164 -61 -164 -119 0 -43 22 -67 87 -96 69 -30 225 -33 304 -6 59 21 103 65 103 104 0 34 -55 85 -111 102 -46 14 -177 23 -219 15z"/> <path d="M1240 1484 c0 -18 31 -54 61 -69 16 -9 29 -14 29 -12 0 1 -20 23 -45 47 -25 24 -45 40 -45 34z"/> <path d="M1240 1362 c0 -15 7 -37 15 -48 21 -30 109 -65 179 -71 l61 -6 -33 35 c-24 26 -48 38 -87 47 -29 7 -72 25 -94 42 l-41 29 0 -28z"/> <path d="M1240 1243 c0 -76 96 -125 247 -125 110 0 123 5 92 38 -17 19 -33 24 -69 24 -102 0 -199 29 -247 73 l-23 20 0 -30z"/> <path d="M650 1234 c0 -65 111 -117 251 -116 141 1 239 46 239 111 l0 30 -36 -24 c-53 -36 -107 -49 -204 -49 -97 0 -151 13 -204 49 -46 31 -46 31 -46 -1z"/> <path d="M650 1113 c0 -70 84 -114 226 -121 154 -7 264 40 264 113 l0 34 -27 -25 c-37 -35 -113 -54 -213 -54 -99 0 -166 17 -215 55 l-35 26 0 -28z"/> <path d="M1240 1110 c0 -76 120 -127 277 -118 81 5 173 30 173 48 0 4 -9 15 -20 25 -17 15 -25 16 -64 6 -64 -16 -193 -14 -254 4 -28 9 -65 27 -82 41 l-30 26 0 -32z"/> <path d="M650 983 c0 -70 84 -114 226 -121 154 -7 264 40 264 113 l0 34 -27 -25 c-37 -35 -113 -54 -213 -54 -99 0 -166 17 -215 55 l-35 26 0 -28z"/> <path d="M1240 980 c0 -69 106 -120 251 -120 135 0 239 48 239 112 l0 29 -31 -22 c-47 -33 -114 -49 -209 -49 -100 0 -176 19 -220 56 l-30 26 0 -32z"/> <path d="M650 856 c0 -38 45 -83 103 -103 37 -13 80 -18 147 -18 103 1 157 14 208 52 26 19 32 31 32 60 l0 36 -23 -21 c-36 -34 -97 -54 -182 -59 -99 -7 -179 9 -239 47 l-46 30 0 -24z"/> <path d="M1240 853 c0 -53 53 -92 155 -113 115 -24 282 9 320 64 8 11 15 33 15 49 l0 29 -30 -25 c-48 -41 -95 -52 -215 -52 -93 0 -118 4 -160 23 -27 13 -57 30 -67 39 -17 15 -18 14 -18 -14z"/> <path d="M1830 851 c0 -43 48 -79 140 -106 22 -6 21 -3 -15 35 -22 23 -59 55 -82 70 l-43 29 0 -28z"/> </g> </svg> 